<svg xmlns="http://www.w3.org/2000/svg" viewBox="0 0 755.74 755.74"><g id="Layer_2" data-name="Layer 2"><g id="Layer_1-2" data-name="Layer 1"><rect width="755.74" height="755.74" rx="38.59" fill="#fff"/><path d="M153.94,373.78A167,167,0,0,1,143.84,352c-6.51-16.7-10.52-33.85-10.33-51.81.37-34.8,21.65-63.85,55.2-75.63,18.35-6.44,37.27-8.81,56.67-8.29,24.92.67,49.15,5.16,73.06,11.93,27.53,7.79,53.77,18.56,79.37,31.08,47.86,23.4,91.37,53,131.57,87.34,34.85,29.75,66.27,62.64,93.17,99.52,20.11,27.58,37.19,56.74,49.18,88.59,1.71,4.54,1.64,4.66-3.17,4.67-13.82,0-27.64-.11-41.45.1-3.7.06-5.62-.86-7.33-4.36A397.6,397.6,0,0,0,576,465.83a597,597,0,0,0-55.52-62A716,716,0,0,0,406,313a546.92,546.92,0,0,0-85.66-44.93c-24.68-10.13-50.06-18-76.7-21.26-16.74-2.05-33.51-2.18-49.95,2.53-26.06,7.49-40.78,24.91-45.65,50.51-4.1,21.59-1.23,42.89,3.95,64,.41,1.67.78,3.34,1.08,5C153.36,370.38,154.79,371.63,153.94,373.78Z" fill="#1a4887"/><path d="M265.25,487.11c0-15.47-.17-30.93.05-46.4.23-15.87,7.49-28.09,21.29-36.49A34.89,34.89,0,0,1,305,399q58.71,0,117.42-.06c2.74,0,3.83.68,3.8,3.53-.14,19.17.25,38.35-.34,57.5-.32,10.51-5.94,19.05-14.09,25.84-2.45,2-5,4.14-8,5.3s-2.94,2.78-1.65,5.25c6.61,12.71,13.09,25.48,19.66,38.21,2.56,5,2.61,4.92-3.28,4.9-7.72,0-15.44-.07-23.15.07a5.24,5.24,0,0,1-5.41-3.14c-6.71-12.52-13.7-24.89-20.34-37.45-1.43-2.71-3.12-3.41-6-3.39q-30.47.12-60.94-.06c-3.36,0-4.44.91-4.38,4.26.19,11.89,0,23.79.12,35.68.05,3.22-1.13,4.14-4.22,4.09-8.26-.14-16.53-.22-24.78,0-3.55.1-4.24-1.26-4.22-4.4C265.32,519.1,265.25,503.1,265.25,487.11Zm84-56.43v-.05h-40.2c-6.85,0-10.72,3.82-10.73,10.59,0,6.08.12,12.16,0,18.23-.08,2.89.86,4,3.91,3.94,27.34-.09,54.69,0,82-.09,6,0,9.43-3.52,9.45-9.49,0-6.47-.16-12.95.05-19.42.09-2.93-.77-3.83-3.85-3.79C376.34,430.77,362.81,430.68,349.27,430.68Z" fill="#e3404b"/><path d="M180.34,399c19.78,0,39.56.09,59.34-.08,3.62,0,4.58,1,4.54,4.44-.21,20,0,39.93-.29,59.89-.26,17.14-14.59,33.6-31.75,37.1a45.47,45.47,0,0,1-9.26.95q-40-.09-80.07,0c-7.26,0-6.6-.82-6.63,6.28,0,9.25-.11,18.51,0,27.76,0,3-.73,4.31-4,4.24-8.53-.17-17.07-.15-25.6,0-2.6,0-3.59-.77-3.58-3.39.07-32.39-.23-64.79.18-97.18.22-18.1,12.53-33.1,30.2-38.64a28.86,28.86,0,0,1,8.8-1.25l29.26-.05Zm-19,70.2v0c13.39,0,26.79,0,40.18,0,6.23,0,9.91-3.4,10-9.43.11-8.58-.06-17.16.09-25.74,0-2.66-.89-3.32-3.5-3.31-27.33.08-54.66,0-82,.05-6.29,0-9.84,3.5-9.88,9.56-.06,8.19.16,16.38-.11,24.56-.11,3.57,1.17,4.48,4.64,4.44C134.3,469.06,147.83,469.15,161.36,469.15Z" fill="#e3404b"/><path d="M634.4,443c-2.57-3.35-4.95-6.47-7.35-9.57-4.15-5.37-8.21-10.82-12.54-16.06a9.44,9.44,0,0,1-2.34-6.47q.08-38.67,0-77.34c0-1.88.46-3.94-2-5.15-6.09-3-6.9-2.6-6.89,4q0,33.31,0,66.63c0,1-.11,2.07-.24,4.21-3-3.09-5.41-5.54-7.76-8.07-3.71-4-7.22-8.24-11.09-12.11a9.06,9.06,0,0,1-2.74-7.09c.1-18.24.07-36.49.08-54.73,0-3-5.48-7.18-8.16-6.15-1.69.64-1,2.29-1,3.5,0,15.46,0,30.93,0,46.4v4.25c-1.84.47-2.47-.68-3.32-1.48-7-6.58-14.05-13.19-21.15-19.7a6,6,0,0,1-2.08-4.89q0-36.88,0-73.77c0-3.11.72-4.05,4-2.8Q591,282.41,632.23,298c2.62,1,3,2.64,2.95,4.92,0,10.44,0,20.88,0,31.33q0,51.75,0,103.51C635.15,439.31,635.5,440.91,634.4,443Z" fill="#e3404b"/><path d="M545.85,493.76c0-13.74,0-27.49,0-41.23,0-1.18-.77-3,.94-3.41,1.17-.3,2,1.19,2.7,2.11,7,8.6,13.86,17.24,20.87,25.8a8,8,0,0,1,2,5.39c0,17.84-.08,35.68.05,53.52,0,2.92-1.12,3.6-3.79,3.55-6.23-.1-12.46-.16-18.68,0-3.26.11-4.19-1.09-4.16-4.15.13-13.87.06-27.75.06-41.63Z" fill="#e3404b"/><path d="M535.93,473.11c-.21,7.85,1.48,5.68-6.71,8.83-25.8,9.92-51.67,19.65-77.52,29.45-4.94,1.87-5.15,1.73-5.14-3.38,0-9.66,0-9.77,9.21-13.31q37.75-14.52,75.59-28.86c4.12-1.57,4.49-1.27,4.57,3.18C536,470.21,535.93,471.39,535.93,473.11Z" fill="#e3404b"/><path d="M535.87,447.61c0,8.43.89,6.5-6.74,9.44q-38.89,15-77.88,29.78c-4.12,1.58-4.77,1.2-4.66-3.11.29-12.24-1.79-9.49,9.75-13.89q36.69-14,73.39-27.95c6.18-2.36,6.21-2.39,6.14,4.15C535.86,446.56,535.87,447.08,535.87,447.61Z" fill="#1b4784"/><path d="M535.89,496.9c0,7.15,0,7.2-6.53,9.69Q490.56,521.33,451.74,536c-4.95,1.88-5.22,1.73-5.1-3.55.28-11.63-2-8.68,9.57-13.07q36.9-14.06,73.79-28.11c5.83-2.21,5.88-2.1,5.89,4Z" fill="#1b4784"/><path d="M446.57,456.1c0-.26,0-.53,0-.79.19-7.32-1.43-6.08,6.57-9.12q32.31-12.27,64.59-24.62c2.34-.9,4-.85,5.66,1.16a62.91,62.91,0,0,0,5.86,6c2.2,2,1.76,3.06-.93,4.07-10.48,3.92-20.9,8-31.36,11.95-14.87,5.63-29.76,11.2-44.63,16.82-5.73,2.16-5.72,2.19-5.75-3.91Z" fill="#e3404b"/><path d="M446.6,431.21c0-7.19,0-7.27,6.15-9.62,15.36-5.83,30.78-11.5,46.1-17.43,3.13-1.22,5.27-.94,7.4,1.6a63.63,63.63,0,0,0,5.45,5.31c2.09,1.95,1.33,2.9-1.07,3.79q-29.13,10.9-58.2,21.95c-5.87,2.22-5.86,2.26-5.83-4Z" fill="#1b4784"/><path d="M535.92,274c.06,7.41.09,7.47-6.87,10.15q-19.26,7.39-38.58,14.67c-1.1.41-2.36,1.22-3.49.47a132.7,132.7,0,0,1-12.52-8.75c-2.25-1.9.77-2.13,1.78-2.52,11.07-4.28,22.18-8.46,33.27-12.68q11-4.17,21.92-8.38c4.23-1.63,4.46-1.49,4.49,3.07C535.93,271.32,535.92,272.64,535.92,274Z" fill="#e3404b"/><path d="M469.84,538.89c10.26-4,19.66-7.63,29.1-11.22,10.84-4.12,21.71-8.15,32.56-12.24,4.14-1.57,4.44-1.44,4.45,2.72,0,6.08-.07,12.16,0,18.24,0,2.12-.69,3.1-3,3.1-20.45-.06-40.89,0-61.34-.06A11.93,11.93,0,0,1,469.84,538.89Z" fill="#e3404b"/><path d="M446.53,406.51c.11-8.53-1.12-6.72,7.14-10s16.92-6.31,25.27-9.71c3.27-1.33,5.75-1.48,8.21,1.41a55.32,55.32,0,0,0,6,5.34c1.59,1.38,1.88,2.45-.51,3.35Q471,405,449.52,413.23c-2.22.85-3,.18-3-2C446.54,409.68,446.53,408.09,446.53,406.51Z" fill="#e3404b"/><path d="M581.49,494.39c5.73,5.54,9.24,12.23,13.34,18.52,1.95,3,3.34,6.37,5.47,9.23,3.39,4.56,3,9.65,3,14.78,0,1.84-.74,2.57-2.66,2.54-5.4-.07-10.81,0-16.21,0-2,0-3-.75-2.95-2.8C581.51,522.59,581.49,508.49,581.49,494.39Z" fill="#e3404b"/><path d="M535.87,299c0,1.45-.06,2.91,0,4.36.12,2.18-.92,3.26-3,4-6.48,2.33-12.89,4.84-19.29,7.37-2.47,1-4.55,1-6.73-.84-2.53-2.17-5.35-4-8.08-6-1.58-1.12-1.69-2,.24-2.75l34.06-12.92c1.94-.73,2.83,0,2.84,2,0,1.59,0,3.17,0,4.76Z" fill="#1a4782"/><path d="M461.9,368.79c1.73-.15,2.45.08,3.12.64,2.84,2.44,5.68,4.89,8.59,7.26,1.68,1.37,1,2.19-.56,2.81q-11.88,4.59-23.79,9.11c-1.63.62-2.68.11-2.66-1.74,0-3.44.09-6.87.14-10.31a2.19,2.19,0,0,1,1-2.07C452.48,371.93,457.7,370.49,461.9,368.79Z" fill="#1a4782"/><path d="M536,323.92c0,1.46.08,2.91,0,4.36a4.28,4.28,0,0,1-6.83,3.43c-3.15-2.27-6-4.91-9-7.35-1.55-1.26-1.27-2.11.51-2.77,3.91-1.47,7.86-2.87,11.72-4.46,2.71-1.12,3.83-.43,3.66,2.43C535.87,321,535.94,322.47,536,323.92Z" fill="#e3404b"/><path d="M446.35,360.23c.52-1.43-.76-3.34,1.28-4.13.94-.37,7,4.82,6.53,5.38a8.07,8.07,0,0,1-6,2.6C445.09,364.15,447.16,361.46,446.35,360.23Z" fill="#e3404b"/></g></g></svg>