<svg xmlns="http://www.w3.org/2000/svg" viewBox="0 0 342.43 181.18"><g id="Layer_2" data-name="Layer 2"><g id="Layer_1-2" data-name="Layer 1"><path d="M72.31,69.37a73.63,73.63,0,0,1-4.44-9.59A60.43,60.43,0,0,1,63.32,37c.16-15.32,9.53-28.1,24.3-33.29A69,69,0,0,1,112.56,0a130.29,130.29,0,0,1,32.16,5.25A209.31,209.31,0,0,1,179.66,19a276.27,276.27,0,0,1,57.92,38.45,256.22,256.22,0,0,1,41,43.81c8.85,12.14,16.37,25,21.65,39,.75,2,.72,2.05-1.39,2.05-6.09,0-12.17,0-18.25,0a3,3,0,0,1-3.23-1.92,175.07,175.07,0,0,0-19.29-30.51,262.11,262.11,0,0,0-24.44-27.28,315.06,315.06,0,0,0-50.36-40,240.85,240.85,0,0,0-37.71-19.78c-10.86-4.46-22-7.92-33.77-9.36-7.37-.9-14.75-1-22,1.12-11.47,3.29-17.95,11-20.1,22.23-1.8,9.51-.54,18.88,1.74,28.17.18.73.34,1.47.48,2.21S72.68,68.42,72.31,69.37Z" fill="#1a4887"/><path d="M121.31,119.25c0-6.8-.08-13.61,0-20.42.1-7,3.3-12.36,9.37-16.06a15.39,15.39,0,0,1,8.12-2.31q25.85,0,51.69,0c1.2,0,1.68.3,1.67,1.55-.06,8.44.11,16.88-.15,25.31-.14,4.63-2.61,8.39-6.2,11.38a12.71,12.71,0,0,1-3.54,2.33c-1.3.5-1.29,1.23-.72,2.31,2.91,5.6,5.76,11.22,8.65,16.82,1.13,2.19,1.15,2.17-1.44,2.16-3.4,0-6.8,0-10.19,0a2.3,2.3,0,0,1-2.38-1.38c-3-5.51-6-11-9-16.49A2.51,2.51,0,0,0,164.6,123q-13.41.06-26.82,0c-1.48,0-2,.4-1.93,1.88.08,5.23,0,10.47.05,15.71,0,1.41-.5,1.82-1.86,1.8-3.63-.06-7.27-.1-10.91,0-1.56,0-1.86-.55-1.85-1.93C121.34,133.34,121.31,126.29,121.31,119.25Zm37-24.84v0H140.6c-3,0-4.72,1.69-4.72,4.67,0,2.68.05,5.35,0,8,0,1.27.38,1.74,1.72,1.74,12,0,24.08,0,36.11,0a3.81,3.81,0,0,0,4.16-4.18c0-2.85-.07-5.7,0-8.55,0-1.29-.33-1.69-1.69-1.67C170.21,94.45,164.25,94.41,158.29,94.41Z" fill="#e3404b"/><path d="M83.93,80.45c8.71,0,17.42,0,26.12,0,1.6,0,2,.44,2,2-.09,8.78,0,17.57-.13,26.36-.11,7.55-6.42,14.79-14,16.33a19.89,19.89,0,0,1-4.08.42q-17.62,0-35.24,0c-3.2,0-2.91-.36-2.92,2.76,0,4.08-.05,8.15,0,12.23,0,1.31-.32,1.89-1.79,1.86-3.75-.08-7.51-.07-11.27,0-1.14,0-1.57-.34-1.57-1.49,0-14.26-.1-28.52.08-42.78.1-8,5.52-14.57,13.3-17a12.67,12.67,0,0,1,3.87-.55l12.88,0C75.46,80.44,79.7,80.45,83.93,80.45Zm-8.35,30.9v0H93.27c2.74,0,4.35-1.5,4.39-4.15,0-3.77,0-7.55,0-11.33,0-1.17-.39-1.46-1.54-1.46-12,0-24.07,0-36.1,0-2.76,0-4.33,1.54-4.35,4.2,0,3.61.07,7.21,0,10.81-.05,1.58.51,2,2,2C63.66,111.31,69.62,111.35,75.58,111.35Z" fill="#e3404b"/><path d="M283.81,99.82c-1.14-1.48-2.18-2.85-3.24-4.22-1.83-2.36-3.61-4.76-5.52-7.07a4.15,4.15,0,0,1-1-2.84q0-17,0-34c0-.83.2-1.73-.87-2.26-2.68-1.34-3-1.15-3,1.76V80.47c0,.45-.05.91-.1,1.85-1.32-1.36-2.39-2.44-3.42-3.55-1.64-1.77-3.18-3.63-4.88-5.33a4,4,0,0,1-1.21-3.12c0-8,0-16.06,0-24.09,0-1.31-2.41-3.16-3.59-2.71-.74.28-.43,1-.43,1.54q0,10.21,0,20.42v1.88c-.81.2-1.09-.3-1.47-.66-3.09-2.89-6.18-5.8-9.31-8.67a2.68,2.68,0,0,1-.91-2.15q0-16.25,0-32.47c0-1.37.32-1.79,1.76-1.24q18.12,7,36.28,13.84a1.9,1.9,0,0,1,1.3,2.17c0,4.59,0,9.19,0,13.79q0,22.78,0,45.56A4.07,4.07,0,0,1,283.81,99.82Z" fill="#e3404b"/><path d="M101.93,181c-3,0-6.08,0-9.12,0-1.26,0-1.64-.46-1.61-1.65.13-4.71-.5-3.79,3.81-3.85,4.77-.07,9.54,0,14.31,0a2.29,2.29,0,0,0,2.29-3.31c-.36-.91-1.17-.65-1.84-.65-5.42,0-10.85-.08-16.28,0-1.82,0-2.46-.5-2.3-2.27s0-3.38,0-5.06c.1-4.46,2.91-7.41,7.44-7.51,5.84-.11,11.69,0,17.53,0,1.07,0,1.48.39,1.46,1.45-.1,4.89.58,3.9-3.83,4-4.71.06-9.42,0-14.13,0-2.3,0-3,.55-3.18,2.21-.19,1.49.34,2.11,2,2.09,5.6-.07,11.21,0,16.81,0,2.36,0,2.36,0,2.36,2.25,0,1.81,0,3.61,0,5.42a6.92,6.92,0,0,1-7.12,6.95h-8.59Z" fill="#1b4784"/><path d="M168.43,156.75c3.16,0,6.32,0,9.48,0,1.19,0,1.74.34,1.71,1.59-.06,2.91,0,5.82-.05,8.73a5.88,5.88,0,0,1-2.85,5c-1.33.86-1.31,1.7-.64,2.9.86,1.53,1.57,3.13,2.42,4.67.62,1.12.2,1.32-.94,1.46-2.68.33-4.66-.3-5.51-3.06-1.19-3.83-3.72-5.45-7.87-4.7a17.07,17.07,0,0,1-4.46,0c-1.79-.17-2.32.58-2.2,2.2.11,1.38,0,2.79,0,4.18,0,.47,0,1.08-.52,1.17a14.33,14.33,0,0,1-4.62,0c-.63-.1-.61-.8-.61-1.32,0-5.29-.11-10.59.06-15.87.14-4.19,3.29-6.92,7.61-7C162.47,156.73,165.45,156.75,168.43,156.75Zm-2.82,11.08v0c1.49,0,3,0,4.47,0,3.95.06,3.87.06,3.9-3.79,0-1.59-.59-2-2.1-1.94-3.45.09-6.9.05-10.36,0-4,0-4.08.16-4,4,0,1.33.57,1.69,1.83,1.65C161.44,167.78,163.53,167.83,165.61,167.83Z" fill="#1b4784"/><path d="M300.12,156.75c3.1,0,6.2,0,9.3,0,1.28,0,1.84.42,1.83,1.73,0,5.29.08,10.59-.06,15.89a6.93,6.93,0,0,1-7.08,6.65c-4.41.05-8.83,0-13.24,0a7,7,0,0,1-7.05-6.56c-.13-3.66-.12-7.33,0-11,.09-3.51,3.38-6.56,7-6.68,1.55,0,3.1,0,4.65,0Zm-2.21,5.4v0h-6.44c-1.37,0-2.07.5-2,2,.08,3.08.08,6.17,0,9.25-.05,1.61.64,2.2,2.21,2.18,3.93,0,7.87,0,11.8,0,1.47,0,2.23-.55,2.21-2.06,0-3.31,0-6.63,0-10,0-1.21-.58-1.48-1.65-1.46C302,162.17,299.94,162.15,297.91,162.15Z" fill="#1b4784"/><path d="M45.92,156.75c2.92,0,5.84,0,8.76,0,1.28,0,1.81.4,1.8,1.71-.06,5.11,0,10.23,0,15.34-.06,4.59-3,7.25-7.7,7.25-3.87,0-7.76-.19-11.61.06a7.46,7.46,0,0,1-8.06-7.46c-.07-3.13-.09-6.28,0-9.41.16-4.55,3.21-7.39,7.91-7.47,3-.06,5.95,0,8.93,0Zm-3.11,18.86h0c2,0,3.93,0,5.89,0,1.52,0,2.16-.59,2.14-2.07-.05-3.25,0-6.51,0-9.76,0-1.19-.44-1.67-1.67-1.65q-6.07.06-12.15,0c-1.68,0-2.38.79-2.38,2.34,0,3,0,5.93,0,8.89,0,1.6.78,2.3,2.44,2.25C39,175.56,40.91,175.61,42.81,175.61Z" fill="#1a4782"/><path d="M244.83,122.18c0-6.05,0-12.1,0-18.15,0-.52-.33-1.31.42-1.5.51-.13.86.52,1.19.93,3.06,3.79,6.1,7.59,9.18,11.36a3.48,3.48,0,0,1,.89,2.37c0,7.85,0,15.71,0,23.56,0,1.28-.5,1.58-1.67,1.56-2.74,0-5.49-.07-8.22,0-1.44,0-1.85-.48-1.83-1.82.05-6.11,0-12.22,0-18.33Z" fill="#e3404b"/><path d="M183.39,168.87c0-3.44.05-6.87,0-10.3,0-1.34.44-1.86,1.85-1.84,4.48.06,3.86-.32,3.87,3.68,0,4.37.07,8.73,0,13.09,0,1.71.6,2.2,2.28,2.15,3.88-.1,7.75,0,11.63-.05,2.23,0,2.48-.25,2.48-2.39,0-4.83.07-9.66,0-14.48,0-1.57.57-2,2.09-2,3.7,0,3.68,0,3.66,3.6,0,4.25,0,8.5,0,12.74,0,5.2-2.81,8-8.14,8-5.9,0-11.8,0-17.7,0-1.5,0-2-.48-1.94-1.9.07-3.43,0-6.86,0-10.29Z" fill="#1a4782"/><path d="M342.39,168.83c0,3.43,0,6.87,0,10.3,0,1.39-.4,2-1.92,1.93-4.62-.1-3.88.43-3.94-3.79s-.05-8.72,0-13.08c0-1.48-.41-2.09-2-2.05-3.75.08-7.51,0-11.26,0-2.23,0-2.71.47-2.72,2.7,0,4.83-.06,9.66,0,14.48,0,1.31-.42,1.74-1.74,1.71-4.56-.1-3.87.51-3.88-3.78s0-8.49,0-12.74c0-4.79,2.85-7.71,7.7-7.76,5.9-.07,11.8,0,17.7,0,1.65,0,2.15.57,2.09,2.16C342.31,162.2,342.39,165.52,342.39,168.83Z" fill="#1b4784"/><path d="M87.56,169.09c0,3.37,0,6.75,0,10.12,0,1.29-.27,1.91-1.77,1.86-4.51-.14-3.83.4-3.88-3.69q-.08-6.81,0-13.61c0-1.21-.38-1.65-1.63-1.63-3.93.06-7.87,0-11.8,0-2.19,0-2.42.29-2.43,2.47,0,4.89,0,9.78,0,14.67,0,1.27-.36,1.76-1.71,1.73-4.7-.11-4.09.66-4.12-3.93,0-4.3-.07-8.61,0-12.92.12-4.67,3-7.42,7.79-7.44,5.78,0,11.57,0,17.35,0,1.55,0,2.25.39,2.18,2.07-.12,3.43,0,6.86,0,10.3Z" fill="#1b4784"/><path d="M12.74,156.74c3.58,0,7.16,0,10.73,0,1.38,0,1.92.42,1.86,1.82-.19,4.33.59,3.55-3.68,3.61q-7,.12-14,0c-1.52,0-2.16.37-2.1,2,.1,2.85,0,5.7,0,8.55s.27,3,3.08,3c4.89,0,9.78.06,14.67,0,1.52,0,2,.55,2,1.93-.09,4.08.36,3.47-3.49,3.5-4.59,0-9.19-.2-13.77.08a7.45,7.45,0,0,1-8-7.48C0,168.5,0,163.37,0,158.25c0-1.3.7-1.53,1.82-1.52,3.64,0,7.27,0,10.91,0Z" fill="#1a4782"/><path d="M240.46,113.09c-.09,3.46.65,2.5-3,3.89-11.36,4.37-22.75,8.65-34.13,13-2.17.83-2.27.76-2.26-1.49,0-4.25,0-4.29,4.06-5.86q16.62-6.37,33.27-12.7c1.81-.69,2-.56,2,1.4C240.47,111.81,240.46,112.34,240.46,113.09Z" fill="#e3404b"/><path d="M240.43,101.87c0,3.71.4,2.86-3,4.15-11.42,4.41-22.85,8.75-34.29,13.11-1.81.69-2.09.53-2.05-1.37.13-5.38-.78-4.18,4.3-6.11q16.14-6.16,32.3-12.3c2.72-1,2.74-1.06,2.7,1.82Z" fill="#1b4784"/><path d="M240.45,123.56c0,3.15,0,3.17-2.88,4.27q-17.08,6.49-34.17,13c-2.18.83-2.3.76-2.24-1.56.12-5.12-.87-3.82,4.21-5.76q16.24-6.18,32.48-12.37c2.57-1,2.59-.92,2.6,1.77Z" fill="#1b4784"/><path d="M134.76,156.74c3.81,0,7.63,0,11.45,0,1.37,0,1.92.46,1.88,1.83-.11,4.15.29,3.53-3.63,3.6-1.67,0-3.35.1-5,0-1.5-.11-1.81.52-1.8,1.82.06,5.07,0,10.13.07,15.19,0,1.42-.39,1.92-1.89,1.93-3.77,0-3.78.08-3.78-3.52,0-4.54-.05-9.08,0-13.62,0-1.37-.43-1.85-1.85-1.8-2.38.09-4.77,0-7.15,0-1.27,0-1.82-.32-1.79-1.67.08-4.43-.27-3.72,3.82-3.75C128.32,156.72,131.54,156.74,134.76,156.74Z" fill="#1a4782"/><path d="M201.12,105.6v-.34c.08-3.23-.63-2.68,2.89-4q14.24-5.4,28.44-10.84a1.9,1.9,0,0,1,2.49.51,27,27,0,0,0,2.58,2.66c1,.88.77,1.35-.41,1.79-4.62,1.73-9.2,3.52-13.81,5.26-6.54,2.48-13.1,4.93-19.64,7.41-2.53,1-2.52,1-2.53-1.73C201.12,106.07,201.13,105.84,201.12,105.6Z" fill="#e3404b"/><path d="M201.14,94.65c0-3.17,0-3.2,2.7-4.24,6.77-2.56,13.56-5.06,20.3-7.67a2.49,2.49,0,0,1,3.26.7,27.8,27.8,0,0,0,2.39,2.34c.92.86.59,1.28-.47,1.67q-12.81,4.8-25.62,9.66c-2.58,1-2.57,1-2.56-1.77Z" fill="#1b4784"/><path d="M240.46,25.43c0,3.26,0,3.29-3,4.46-5.65,2.18-11.31,4.32-17,6.46-.48.18-1,.54-1.54.21a60.93,60.93,0,0,1-5.51-3.85c-1-.84.34-.94.79-1.11,4.87-1.89,9.76-3.73,14.64-5.58l9.65-3.69c1.86-.72,2-.66,2,1.35Z" fill="#e3404b"/><path d="M211.37,142.05c4.51-1.75,8.65-3.36,12.81-4.94,4.77-1.81,9.56-3.59,14.33-5.39,1.82-.69,2-.63,2,1.2,0,2.67,0,5.35,0,8,0,.93-.31,1.36-1.34,1.36q-13.5,0-27,0A4.25,4.25,0,0,1,211.37,142.05Z" fill="#e3404b"/><path d="M215.1,171.27q0-6.28,0-12.55l22.47,0h0c-.08.88.91,1.28,1.09,2.12-4.16,0-8.19,0-12.23,0-2,0-4.05.34-6-.5a.84.84,0,0,0-1.2.46c-.31,1.5-1,3-.24,4.57a6.43,6.43,0,0,1,0,6.3,2.5,2.5,0,0,0,.7,3.52c1.28,1.13,2.58,1,4.14,1.1,4,.21,8.08.21,12.12.26.89,0,2-.08,1.91,1.22s-1.09,1.22-2,1.22c-2.74,0-5.49-.06-8.22,0s-5.34-.41-8,.48c-1.05.36-2.73-1.26-2.41-2.29s-.16-1.63-.88-2.22-1.23-1.4-.46-2.41S215.92,171.37,215.1,171.27Z" fill="#1a4988"/><path d="M215.1,171.27c.82.1,1.54.31.8,1.28s-.33,1.74.46,2.41,1.21,1.14.88,2.22,1.36,2.65,2.41,2.29c2.63-.89,5.31-.39,8-.48s5.48,0,8.22,0c.9,0,1.93,0,2-1.22s-1-1.21-1.91-1.22c-4-.05-8.08-.05-12.12-.26-1.56-.08-2.86,0-4.14-1.1a2.5,2.5,0,0,1-.7-3.52,6.43,6.43,0,0,0,0-6.3c-.78-1.56-.07-3.07.24-4.57a.84.84,0,0,1,1.2-.46c1.95.84,4,.48,6,.5,4,.05,8.07,0,12.23,0-.18-.84-1.17-1.24-1.09-2.12.4-.1.87-.19.84-.72s-.5-.6-.91-.64-.83,0-1.24,0H215.11c.29-.9,1.07-.58,1.65-.59,7.2,0,14.4,0,21.59,0,1.49,0,2.09.52,1.94,1.94,0,.52,0,1.05,0,1.57,0,2-.26,2.2-2.49,1.74a5.2,5.2,0,0,0-2.58-.45h-11.7a5.88,5.88,0,0,0-2.6.41c-.43,4.12-.13,8.25-.18,12.37,0,1.33,1,1.26,1.87,1.27,5.18,0,10.37.13,15.55,0,1.82,0,2.24.62,2.17,2.23-.15,3.38.64,3.24-3.4,3.24H222.61c-4.62,0-7.56-2.83-7.63-7.35C215,172.89,215.05,172.08,215.1,171.27Z" fill="#1c457e"/><path d="M274.49,169c0-3.55,0-7.1,0-10.64,0-1.22.47-1.61,1.68-1.65,4-.11,4-.15,4,3.62,0,6.22,0,12.45,0,18.67,0,1.51-.49,2-2,2-3.63,0-3.64.1-3.64-3.49,0-2.85,0-5.7,0-8.55Z" fill="#1b4784"/><path d="M201.11,83.78c0-3.76-.5-3,3.14-4.4s7.45-2.78,11.12-4.27c1.44-.59,2.54-.65,3.62.62a24.51,24.51,0,0,0,2.62,2.35c.7.61.83,1.08-.22,1.47q-9.49,3.57-19,7.18c-1,.38-1.33.08-1.32-.86Z" fill="#e3404b"/><path d="M260.52,122.46c2.52,2.44,4.06,5.38,5.87,8.15.86,1.32,1.47,2.81,2.41,4.06,1.49,2,1.33,4.25,1.31,6.51,0,.81-.32,1.13-1.17,1.12-2.38,0-4.75,0-7.13,0-.88,0-1.3-.33-1.3-1.23Q260.52,131.76,260.52,122.46Z" fill="#e3404b"/><path d="M240.43,36.45c0,.64,0,1.28,0,1.92.05,1-.4,1.44-1.33,1.77-2.85,1-5.67,2.13-8.49,3.24a2.6,2.6,0,0,1-3-.37c-1.12-.95-2.36-1.77-3.56-2.62-.7-.49-.74-.88.11-1.21l15-5.68c.85-.33,1.24,0,1.25.86v2.09Z" fill="#1a4782"/><path d="M207.88,67.17a1.62,1.62,0,0,1,1.37.28c1.25,1.08,2.5,2.16,3.78,3.2.74.6.45,1-.25,1.23q-5.24,2-10.47,4c-.72.27-1.18,0-1.17-.77,0-1.51,0-3,.06-4.54a1,1,0,0,1,.43-.91A57.41,57.41,0,0,1,207.88,67.17Z" fill="#1a4782"/><path d="M240.47,47.42c0,.64,0,1.28,0,1.92a1.89,1.89,0,0,1-3,1.51c-1.39-1-2.65-2.16-4-3.24-.68-.55-.56-.93.22-1.22,1.73-.64,3.46-1.26,5.16-2,1.2-.49,1.69-.19,1.61,1.07C240.44,46.14,240.47,46.78,240.47,47.42Z" fill="#e3404b"/><path d="M215.11,157.32h21.16c.41,0,.83,0,1.24,0s.88.13.91.64-.44.62-.84.72h0c-.62-.89-1.58-.66-2.45-.67l-20,0Z" fill="#1a4988"/><path d="M215.09,158l20,0c.87,0,1.83-.22,2.45.67l-22.47,0Z" fill="#1c457e"/><path d="M220.91,161.9a5.88,5.88,0,0,1,2.6-.41h11.7a5.2,5.2,0,0,1,2.58.45c-3.61.46-7.24.16-10.86.19C224.93,162.14,222.9,162.43,220.91,161.9Z" fill="#1a4988"/><path d="M201,63.4c.23-.63-.34-1.47.56-1.82.42-.16,3.09,2.13,2.88,2.37a3.57,3.57,0,0,1-2.64,1.15C200.47,65.13,201.39,63.94,201,63.4Z" fill="#e3404b"/><polygon points="243.03 156.7 269.95 156.7 269.95 162.09 259.48 162.09 259.48 181.18 253.91 181.18 253.91 162.09 243.03 162.09 243.03 156.7" fill="#174887"/></g></g></svg>