<svg xmlns="http://www.w3.org/2000/svg" viewBox="0 0 450.04 450.04"><g id="Layer_2" data-name="Layer 2"><g id="Layer_1-2" data-name="Layer 1"><rect width="450.04" height="450.04" rx="17.34" fill="#fff"/><path d="M126.12,203.8a73.11,73.11,0,0,1-4.45-9.59,60.81,60.81,0,0,1-4.55-22.8c.17-15.32,9.53-28.11,24.3-33.29a69.08,69.08,0,0,1,25-3.66,130.77,130.77,0,0,1,32.16,5.26,209.31,209.31,0,0,1,34.94,13.68,275.82,275.82,0,0,1,57.91,38.45,255.52,255.52,0,0,1,41,43.81c8.85,12.13,16.37,25,21.65,39,.75,2,.72,2.05-1.4,2.05-6.08,0-12.17,0-18.25.05a3,3,0,0,1-3.22-1.92,175.66,175.66,0,0,0-19.29-30.51A263.25,263.25,0,0,0,287.45,217a315.82,315.82,0,0,0-50.37-40,241.2,241.2,0,0,0-37.71-19.77c-10.86-4.46-22-7.92-33.76-9.36-7.37-.91-14.75-1-22,1.11-11.47,3.3-18,11-20.09,22.24-1.81,9.5-.54,18.88,1.74,28.17.18.73.34,1.47.47,2.21S126.49,202.85,126.12,203.8Z" fill="#1a4887"/><path d="M175.11,253.69c0-6.81-.07-13.62,0-20.43.1-7,3.29-12.36,9.37-16.06a15.33,15.33,0,0,1,8.11-2.31q25.84,0,51.7,0c1.2,0,1.68.3,1.67,1.56-.07,8.44.11,16.88-.15,25.31-.14,4.62-2.62,8.38-6.21,11.37a12.55,12.55,0,0,1-3.53,2.34c-1.3.49-1.29,1.22-.73,2.31,2.91,5.59,5.77,11.21,8.66,16.82,1.13,2.19,1.15,2.16-1.44,2.16-3.4,0-6.8,0-10.2,0a2.31,2.31,0,0,1-2.38-1.39c-2.95-5.51-6-11-8.95-16.48a2.53,2.53,0,0,0-2.65-1.5q-13.41.06-26.83,0c-1.48,0-2,.4-1.93,1.87.09,5.24,0,10.48.06,15.71,0,1.42-.5,1.82-1.86,1.8-3.64-.06-7.28-.1-10.91,0-1.56,0-1.87-.56-1.85-1.94C175.15,267.77,175.11,260.73,175.11,253.69Zm37-24.84v0H194.4c-3,0-4.72,1.68-4.72,4.66,0,2.68,0,5.36,0,8,0,1.27.38,1.73,1.72,1.73,12,0,24.07,0,36.11,0a3.81,3.81,0,0,0,4.16-4.17c0-2.85-.07-5.71,0-8.55,0-1.29-.34-1.69-1.69-1.67C224,228.89,218.06,228.85,212.1,228.85Z" fill="#e3404b"/><path d="M137.74,214.88c8.7,0,17.41,0,26.12,0,1.59,0,2,.44,2,2-.09,8.79,0,17.58-.13,26.36-.12,7.55-6.42,14.79-14,16.34a19.79,19.79,0,0,1-4.07.41q-17.62,0-35.25,0c-3.2,0-2.91-.36-2.92,2.77,0,4.07-.05,8.15,0,12.22,0,1.32-.32,1.9-1.78,1.87-3.76-.08-7.51-.07-11.27,0-1.14,0-1.58-.34-1.58-1.49,0-14.26-.1-28.52.08-42.78.1-8,5.52-14.57,13.3-17a12.71,12.71,0,0,1,3.87-.55l12.88,0Zm-8.36,30.9v0c5.9,0,11.79,0,17.69,0,2.74,0,4.36-1.5,4.39-4.15,0-3.78,0-7.56,0-11.34,0-1.16-.39-1.45-1.54-1.45-12,0-24.06,0-36.09,0-2.77,0-4.33,1.54-4.35,4.21,0,3.6.07,7.21,0,10.81,0,1.57.52,2,2,1.95C117.47,245.74,123.43,245.78,129.38,245.78Z" fill="#e3404b"/><path d="M337.61,234.25,334.38,230c-1.83-2.37-3.62-4.77-5.52-7.07a4.19,4.19,0,0,1-1-2.85q0-17,0-34c0-.83.2-1.74-.87-2.27-2.68-1.33-3-1.15-3,1.76q0,14.67,0,29.33c0,.46-.05.92-.11,1.86-1.31-1.36-2.38-2.44-3.42-3.56-1.63-1.77-3.18-3.62-4.88-5.33a4,4,0,0,1-1.21-3.12c.05-8,0-16.06,0-24.09,0-1.31-2.41-3.16-3.59-2.71-.74.29-.43,1-.43,1.54,0,6.81,0,13.62,0,20.43v1.87c-.81.21-1.09-.3-1.46-.65-3.1-2.9-6.18-5.81-9.31-8.67a2.67,2.67,0,0,1-.92-2.16q0-16.23,0-32.47c0-1.37.32-1.78,1.75-1.23q18.12,7,36.29,13.84c1.15.43,1.3,1.16,1.3,2.16,0,4.6,0,9.2,0,13.79q0,22.78,0,45.57A4,4,0,0,1,337.61,234.25Z" fill="#e3404b"/><path d="M155.74,315.45c-3,0-6.08,0-9.12,0-1.26,0-1.65-.46-1.61-1.64.13-4.72-.5-3.8,3.81-3.86,4.77-.07,9.54,0,14.31,0a2.29,2.29,0,0,0,2.29-3.31c-.37-.9-1.17-.64-1.84-.65-5.43,0-10.86-.07-16.28,0-1.82,0-2.46-.49-2.31-2.27s0-3.37,0-5.06c.1-4.46,2.9-7.41,7.44-7.5,5.84-.12,11.69,0,17.53,0,1.07,0,1.47.39,1.45,1.45-.09,4.9.59,3.9-3.82,4-4.71.07-9.43,0-14.14,0-2.3,0-3,.55-3.18,2.21-.18,1.49.34,2.1,2,2.08,5.61-.06,11.21,0,16.82,0,2.35,0,2.36,0,2.36,2.25,0,1.8,0,3.61,0,5.41a6.9,6.9,0,0,1-7.11,6.95h-8.59Z" fill="#1b4784"/><path d="M222.24,291.19c3.16,0,6.32,0,9.47,0,1.19,0,1.75.34,1.72,1.59-.07,2.91,0,5.81-.05,8.72a5.89,5.89,0,0,1-2.85,5c-1.34.87-1.31,1.7-.64,2.9.85,1.53,1.57,3.14,2.41,4.67.62,1.13.21,1.32-.93,1.46-2.68.33-4.66-.3-5.51-3.05-1.19-3.83-3.72-5.46-7.87-4.71a16.65,16.65,0,0,1-4.46,0c-1.79-.16-2.32.58-2.2,2.2.1,1.39,0,2.79,0,4.19,0,.47,0,1.07-.52,1.17a14.55,14.55,0,0,1-4.61,0c-.63-.09-.61-.79-.61-1.31,0-5.29-.12-10.59.06-15.88.14-4.18,3.28-6.91,7.61-7C216.28,291.16,219.26,291.19,222.24,291.19Zm-2.82,11.08v0c1.49,0,3,0,4.46,0,4,.05,3.88.06,3.91-3.8,0-1.59-.6-2-2.1-1.93-3.45.09-6.91,0-10.36,0-4,0-4.08.16-4,4,0,1.33.56,1.7,1.83,1.65C215.25,302.21,217.33,302.27,219.42,302.27Z" fill="#1b4784"/><path d="M353.93,291.18c3.1,0,6.2,0,9.3,0,1.27,0,1.84.42,1.83,1.72-.05,5.3.08,10.6-.06,15.89a6.93,6.93,0,0,1-7.08,6.65c-4.42.05-8.83.05-13.24,0a7.06,7.06,0,0,1-7.06-6.56c-.12-3.66-.11-7.34,0-11,.1-3.5,3.38-6.56,7-6.68,1.55-.05,3.1,0,4.65,0Zm-2.22,5.4v0h-6.44c-1.36,0-2.06.51-2,2,.07,3.09.07,6.18,0,9.26-.05,1.61.63,2.19,2.2,2.18,3.94,0,7.87,0,11.81,0,1.46,0,2.22-.54,2.21-2.05,0-3.32,0-6.64,0-10,0-1.21-.59-1.48-1.65-1.46C355.77,296.61,353.74,296.58,351.71,296.58Z" fill="#1b4784"/><path d="M99.73,291.18c2.92,0,5.83,0,8.75,0,1.28,0,1.82.4,1.8,1.71,0,5.12,0,10.23,0,15.35-.06,4.58-3,7.25-7.7,7.25-3.87,0-7.75-.19-11.61.06a7.47,7.47,0,0,1-8-7.46c-.07-3.14-.1-6.28,0-9.42.17-4.54,3.21-7.38,7.92-7.47,3-.05,6,0,8.93,0Zm-3.12,18.87v0c2,0,3.93,0,5.9,0,1.52,0,2.15-.59,2.13-2.08q-.06-4.87,0-9.75c0-1.19-.43-1.67-1.67-1.66q-6.08.07-12.14,0c-1.69,0-2.38.79-2.38,2.34v8.88c0,1.6.79,2.31,2.45,2.25C92.81,310,94.71,310.05,96.61,310.05Z" fill="#1a4782"/><path d="M298.63,256.62c0-6.05,0-12.1,0-18.15,0-.52-.34-1.32.41-1.51.52-.13.87.53,1.19.93,3.07,3.79,6.1,7.59,9.19,11.36a3.52,3.52,0,0,1,.88,2.37c0,7.86,0,15.71,0,23.56,0,1.29-.49,1.59-1.66,1.57-2.75-.05-5.49-.07-8.23,0-1.44.05-1.84-.48-1.83-1.83.06-6.11,0-12.21,0-18.32Z" fill="#e3404b"/><path d="M237.2,303.3c0-3.43,0-6.86,0-10.29,0-1.35.43-1.87,1.85-1.85,4.48.06,3.85-.31,3.87,3.69,0,4.36.07,8.72,0,13.08,0,1.71.6,2.2,2.29,2.16,3.87-.11,7.75,0,11.62,0,2.24,0,2.48-.26,2.49-2.39,0-4.83.07-9.66,0-14.49,0-1.57.57-2,2.08-2,3.71,0,3.69,0,3.67,3.61q0,6.36,0,12.74c0,5.2-2.81,7.95-8.15,8-5.9,0-11.8,0-17.7,0-1.5,0-2-.48-1.94-1.9.08-3.43,0-6.87,0-10.3Z" fill="#1a4782"/><path d="M396.2,303.27c0,3.43-.05,6.86,0,10.29,0,1.39-.41,2-1.92,1.94-4.63-.11-3.88.42-3.94-3.79s-.06-8.73,0-13.09c0-1.48-.41-2.09-2-2.05-3.75.08-7.5,0-11.26,0-2.22,0-2.7.46-2.72,2.7,0,4.82-.05,9.65,0,14.48,0,1.3-.43,1.73-1.74,1.7-4.56-.1-3.87.52-3.89-3.78s0-8.49,0-12.73c0-4.79,2.85-7.72,7.7-7.77,5.9-.06,11.8,0,17.7,0,1.65,0,2.14.58,2.09,2.16C396.12,296.63,396.2,300,396.2,303.27Z" fill="#1b4784"/><path d="M141.36,303.52c0,3.37,0,6.75,0,10.12,0,1.3-.28,1.91-1.78,1.86-4.51-.13-3.82.4-3.87-3.68q-.08-6.81,0-13.62c0-1.21-.38-1.65-1.64-1.63-3.93.06-7.86,0-11.8.05-2.18,0-2.42.28-2.42,2.47,0,4.89,0,9.77,0,14.66,0,1.28-.35,1.76-1.7,1.73-4.71-.11-4.09.67-4.12-3.93,0-4.3-.07-8.61,0-12.91.11-4.67,3-7.43,7.78-7.45,5.79,0,11.57,0,17.35,0,1.56,0,2.25.38,2.19,2.06-.12,3.43,0,6.87,0,10.3Z" fill="#1b4784"/><path d="M66.55,291.17c3.57,0,7.15,0,10.73,0,1.37,0,1.92.43,1.86,1.82-.2,4.34.59,3.55-3.69,3.62q-7,.11-14,0c-1.52,0-2.16.36-2.11,1.94.1,2.85,0,5.71,0,8.56s.27,3,3.07,3c4.89,0,9.78.05,14.67,0,1.52,0,2,.55,2,1.94-.09,4.08.36,3.46-3.49,3.49-4.59,0-9.2-.19-13.77.08a7.44,7.44,0,0,1-8-7.48c-.08-5.12,0-10.24,0-15.36,0-1.31.69-1.53,1.81-1.53,3.64,0,7.28,0,10.92,0Z" fill="#1a4782"/><path d="M294.27,247.53c-.09,3.45.65,2.49-3,3.88-11.35,4.37-22.74,8.65-34.12,13-2.17.82-2.27.76-2.26-1.49,0-4.25,0-4.3,4.05-5.86q16.62-6.39,33.27-12.7c1.82-.69,2-.56,2,1.39C294.28,246.25,294.27,246.77,294.27,247.53Z" fill="#e3404b"/><path d="M294.24,236.3c0,3.71.39,2.86-3,4.16q-17.11,6.6-34.28,13.11c-1.81.69-2.1.52-2.05-1.38.13-5.38-.79-4.17,4.29-6.11l32.31-12.3c2.72-1,2.73-1.05,2.7,1.82Z" fill="#1b4784"/><path d="M294.25,258c0,3.14,0,3.17-2.88,4.27l-34.16,12.94c-2.18.83-2.3.77-2.25-1.56.13-5.12-.87-3.82,4.22-5.75q16.23-6.19,32.48-12.38c2.57-1,2.59-.92,2.59,1.78Z" fill="#1b4784"/><path d="M188.56,291.18c3.82,0,7.63,0,11.45,0,1.38,0,1.92.46,1.89,1.84-.12,4.14.29,3.52-3.64,3.59-1.67,0-3.35.1-5,0-1.5-.12-1.82.51-1.8,1.82,0,5.06,0,10.12.06,15.19,0,1.42-.39,1.92-1.88,1.92-3.78,0-3.78.09-3.79-3.52,0-4.54,0-9.08,0-13.61,0-1.37-.43-1.86-1.85-1.81-2.38.1-4.77,0-7.15,0-1.28,0-1.82-.32-1.8-1.66.08-4.43-.26-3.72,3.82-3.76C182.12,291.16,185.34,291.18,188.56,291.18Z" fill="#1a4782"/><path d="M254.93,240c0-.12,0-.23,0-.35.08-3.22-.63-2.68,2.89-4q14.22-5.4,28.43-10.83a1.87,1.87,0,0,1,2.49.51,28.05,28.05,0,0,0,2.58,2.65c1,.89.78,1.35-.41,1.8-4.61,1.72-9.2,3.51-13.8,5.25l-19.65,7.41c-2.52.95-2.51,1-2.53-1.72Z" fill="#e3404b"/><path d="M254.94,229.08c0-3.16,0-3.2,2.71-4.23,6.76-2.57,13.55-5.07,20.29-7.68a2.49,2.49,0,0,1,3.26.71,26.44,26.44,0,0,0,2.4,2.33c.92.86.58,1.28-.47,1.68q-12.83,4.8-25.62,9.66c-2.58,1-2.58,1-2.57-1.77Z" fill="#1b4784"/><path d="M294.26,159.86c0,3.26,0,3.29-3,4.47q-8.48,3.25-17,6.45c-.49.19-1,.54-1.54.21a55.93,55.93,0,0,1-5.51-3.85c-1-.83.34-.94.78-1.11,4.87-1.88,9.76-3.72,14.65-5.58l9.65-3.69c1.86-.72,2-.65,2,1.35C294.27,158.7,294.26,159.28,294.26,159.86Z" fill="#e3404b"/><path d="M265.17,276.48c4.52-1.74,8.66-3.36,12.81-4.94,4.78-1.81,9.56-3.59,14.34-5.39,1.82-.68,1.95-.63,2,1.2,0,2.68,0,5.35,0,8,0,.93-.3,1.37-1.33,1.36-9,0-18,0-27,0A5.28,5.28,0,0,1,265.17,276.48Z" fill="#e3404b"/><path d="M268.9,305.7V293.15l22.47,0h0c-.09.88.91,1.28,1.08,2.12-4.15,0-8.19,0-12.23,0-2,0-4.05.33-6-.5a.84.84,0,0,0-1.2.45c-.32,1.51-1,3-.24,4.58a6.48,6.48,0,0,1,0,6.3c-.76,1.37-.55,2.4.7,3.51s2.57,1,4.13,1.11c4,.21,8.09.2,12.13.25.88,0,2-.08,1.91,1.23s-1.09,1.21-2,1.22c-2.74,0-5.48-.07-8.22,0s-5.33-.41-8,.48c-1,.35-2.73-1.27-2.41-2.3s-.16-1.62-.87-2.22-1.23-1.4-.47-2.4S269.72,305.8,268.9,305.7Z" fill="#1a4988"/><path d="M268.9,305.7c.82.1,1.54.32.8,1.29s-.32,1.73.47,2.4,1.2,1.15.87,2.22,1.37,2.65,2.41,2.3c2.64-.89,5.32-.39,8-.48s5.48,0,8.22,0c.91,0,1.94,0,2-1.22s-1-1.22-1.91-1.23c-4-.05-8.08,0-12.13-.25-1.56-.09-2.85,0-4.13-1.11s-1.46-2.14-.7-3.51a6.48,6.48,0,0,0,0-6.3c-.78-1.56-.08-3.07.24-4.58a.84.84,0,0,1,1.2-.45c1.94.83,4,.47,6,.5,4,.05,8.08,0,12.23,0-.17-.84-1.17-1.24-1.08-2.12.4-.1.87-.18.84-.71s-.5-.6-.92-.65-.82,0-1.24,0H268.92c.28-.89,1.07-.58,1.65-.58,7.2,0,14.39,0,21.59-.05,1.48,0,2.08.52,1.94,1.95-.06.51,0,1,0,1.56,0,2.05-.25,2.2-2.48,1.75a5.34,5.34,0,0,0-2.59-.46h-11.7a6.08,6.08,0,0,0-2.6.42c-.43,4.12-.13,8.24-.18,12.37,0,1.33,1,1.25,1.87,1.26,5.19,0,10.37.13,15.56,0,1.82,0,2.24.63,2.16,2.24-.15,3.37.64,3.23-3.4,3.23h-14.3c-4.62,0-7.56-2.82-7.64-7.35C268.77,307.32,268.86,306.51,268.9,305.7Z" fill="#1c457e"/><path d="M328.3,303.44c0-3.54,0-7.09,0-10.64,0-1.21.46-1.61,1.68-1.64,4-.12,4-.16,4,3.61,0,6.23,0,12.45,0,18.67,0,1.51-.48,2-2,2-3.63,0-3.63.1-3.64-3.49v-8.55Z" fill="#1b4784"/><path d="M254.91,218.21c.05-3.76-.49-3,3.15-4.39s7.44-2.78,11.12-4.28c1.44-.58,2.53-.65,3.62.62a22.62,22.62,0,0,0,2.62,2.35c.7.61.83,1.08-.23,1.48q-9.49,3.56-19,7.18c-1,.37-1.33.07-1.32-.87C254.92,219.6,254.91,218.91,254.91,218.21Z" fill="#e3404b"/><path d="M314.32,256.9c2.53,2.43,4.07,5.38,5.87,8.15.86,1.31,1.47,2.8,2.41,4.06,1.5,2,1.34,4.25,1.32,6.51,0,.8-.33,1.13-1.17,1.11-2.38,0-4.76,0-7.14,0-.88,0-1.3-.32-1.3-1.23C314.33,269.31,314.32,263.1,314.32,256.9Z" fill="#e3404b"/><path d="M294.24,170.89c0,.64,0,1.28,0,1.92.05,1-.41,1.43-1.34,1.76-2.85,1-5.67,2.13-8.49,3.25a2.62,2.62,0,0,1-3-.37,44.07,44.07,0,0,0-3.56-2.62c-.69-.49-.74-.89.11-1.21l15-5.69c.86-.32,1.25,0,1.25.86s0,1.4,0,2.1Z" fill="#1a4782"/><path d="M261.68,201.61a1.61,1.61,0,0,1,1.37.28c1.25,1.07,2.5,2.15,3.78,3.19.74.6.46,1-.24,1.24l-10.48,4c-.71.27-1.17,0-1.17-.77,0-1.51,0-3,.07-4.53a.93.93,0,0,1,.42-.91A56.22,56.22,0,0,1,261.68,201.61Z" fill="#1a4782"/><path d="M294.28,181.85c0,.64,0,1.29,0,1.92a1.88,1.88,0,0,1-3,1.51c-1.38-1-2.64-2.16-4-3.23-.69-.56-.56-.93.22-1.22,1.72-.65,3.46-1.27,5.16-2,1.19-.49,1.68-.19,1.61,1.07C294.24,180.57,294.27,181.21,294.28,181.85Z" fill="#e3404b"/><path d="M268.92,291.75h21.15c.42,0,.83,0,1.24,0s.89.13.92.65-.44.61-.84.71h0c-.63-.89-1.59-.66-2.45-.66-6.68,0-13.35,0-20,0Z" fill="#1a4988"/><path d="M268.9,292.43c6.67,0,13.34,0,20,0,.86,0,1.82-.23,2.45.66l-22.47,0Z" fill="#1c457e"/><path d="M274.71,296.34a6.08,6.08,0,0,1,2.6-.42H289a5.34,5.34,0,0,1,2.59.46c-3.61.46-7.24.15-10.87.18C278.73,296.58,276.7,296.86,274.71,296.34Z" fill="#1a4988"/><path d="M254.83,197.84c.23-.63-.33-1.47.57-1.82.41-.17,3.09,2.12,2.87,2.37a3.54,3.54,0,0,1-2.63,1.14C254.28,199.56,255.19,198.38,254.83,197.84Z" fill="#e3404b"/><polygon points="296.84 291.13 323.75 291.13 323.75 296.53 313.29 296.53 313.29 315.61 307.71 315.61 307.71 296.53 296.84 296.53 296.84 291.13" fill="#174887"/></g></g></svg>