<?xml version="1.0" encoding="utf-8"?>
<!-- Generator: Adobe Illustrator 25.2.0, SVG Export Plug-In . SVG Version: 6.00 Build 0)  -->
<svg version="1.1" id="Layer_1" xmlns="http://www.w3.org/2000/svg" xmlns:xlink="http://www.w3.org/1999/xlink" x="0px" y="0px"
	 viewBox="0 0 1363 1137" style="enable-background:new 0 0 1363 1137;" xml:space="preserve">
<style type="text/css">
	.st0{fill:#FFFFFF;}
	.st1{fill-rule:evenodd;clip-rule:evenodd;fill:none;}
	.st2{opacity:0.1;}
	.st3{fill-rule:evenodd;clip-rule:evenodd;fill:#929497;}
	.st4{fill:#174886;}
	.st5{fill:#FFFFFF;stroke:#FFFFFF;stroke-width:0.75;stroke-miterlimit:10;}
	.st6{opacity:0.2;}
	.st7{fill:none;stroke:#E3404B;stroke-miterlimit:10;}
	.st8{fill:#24A14C;}
	.st9{fill:#EA4535;}
	.st10{fill:#1B783D;}
	.st11{fill:#547DBF;}
	.st12{fill:#E94536;}
	.st13{fill:#F6BA18;}
	.st14{fill:#33A74E;}
	.st15{fill:#4170B6;}
	.st16{fill:#557EBF;}
	.st17{fill:#36A852;}
	.st18{fill:#F9BC15;}
	.st19{fill:#C52627;}
	.st20{fill:#414142;}
	.st21{fill:#77756C;}
	.st22{fill:#91908E;}
	.st23{fill:#8252A1;}
	.st24{fill:#E5E3E5;}
	.st25{fill:#C9C7C9;}
	.st26{fill:#E9E8EB;}
	.st27{fill:#8154A2;}
	.st28{fill:#D3D0D3;}
	.st29{fill:#E9E7E9;}
	.st30{fill:#9C73B2;}
	.st31{fill:#100E0D;}
	.st32{fill:#EEEDEE;}
	.st33{fill:#F7F8F8;}
	.st34{fill:#F4F4F4;}
	.st35{fill:#F2F2F2;}
	.st36{fill:#E9E8E8;}
	.st37{fill:#E3E3E2;}
	.st38{fill:#2D2D2C;}
	.st39{fill:#242323;}
	.st40{fill:#191717;}
	.st41{fill:#D0CFCE;}
	.st42{fill:#121010;}
	.st43{fill:#A4A3A2;}
	.st44{fill:#616262;}
	.st45{fill:#010101;}
	.st46{fill:#1A4887;}
	.st47{fill:#E3404B;}
	.st48{fill:#1B4784;}
	.st49{fill:#1A4782;}
	.st50{fill:#1A4988;}
	.st51{fill:#1C457E;}
	.st52{fill:#174887;}
	.st53{fill:#231F20;}
	.st54{font-family:'FuturaBT-Medium';}
	.st55{font-size:57.6839px;}
</style>
<g>
	<g>
		<path class="st46" d="M460.8,478.6c-4-7.1-7.1-14.2-9.9-21.4c-6.4-16.4-10.3-33.2-10.1-50.9c0.4-34.2,21.3-62.7,54.2-74.3
			c18-6.3,36.6-8.7,55.7-8.1c24.5,0.7,48.3,5.1,71.8,11.7c27,7.7,52.8,18.2,78,30.5c47,23,89.7,52.1,129.2,85.8
			c34.2,29.2,65.1,61.5,91.5,97.7c19.7,27.1,36.5,55.7,48.3,87c1.7,4.5,1.6,4.6-3.1,4.6c-13.6,0-27.1-0.1-40.7,0.1
			c-3.6,0.1-5.5-0.9-7.2-4.3c-11.8-24.2-26.4-46.7-43-68.1c-16.7-21.5-34.9-41.8-54.5-60.9c-34.4-33.4-71.7-63.3-112.4-89.2
			c-26.8-17-54.7-32-84.1-44.1c-24.2-10-49.2-17.7-75.3-20.9c-16.4-2-32.9-2.1-49.1,2.5c-25.6,7.3-40.1,24.5-44.8,49.6
			c-4,21.2-1.2,42.1,3.9,62.9c0.4,1.6,0.8,3.3,1.1,4.9C460.3,475.3,461.7,476.5,460.8,478.6z"/>
		<path class="st47" d="M570.1,589.9c0-15.2-0.2-30.4,0-45.6c0.2-15.6,7.4-27.6,20.9-35.8c5.5-3.4,11.5-5.2,18.1-5.2
			c38.4,0,76.9,0,115.3-0.1c2.7,0,3.8,0.7,3.7,3.5c-0.1,18.8,0.2,37.7-0.3,56.5c-0.3,10.3-5.8,18.7-13.8,25.4
			c-2.4,2-4.9,4.1-7.9,5.2c-2.9,1.1-2.9,2.7-1.6,5.2c6.5,12.5,12.9,25,19.3,37.5c2.5,4.9,2.6,4.8-3.2,4.8c-7.6,0-15.2-0.1-22.7,0.1
			c-2.6,0-4.1-0.8-5.3-3.1c-6.6-12.3-13.5-24.5-20-36.8c-1.4-2.7-3.1-3.3-5.9-3.3c-20,0.1-39.9,0.1-59.9-0.1c-3.3,0-4.4,0.9-4.3,4.2
			c0.2,11.7,0,23.4,0.1,35c0,3.2-1.1,4.1-4.1,4c-8.1-0.1-16.2-0.2-24.3,0c-3.5,0.1-4.2-1.2-4.1-4.3
			C570.2,621.4,570.1,605.7,570.1,589.9z M652.7,534.5C652.7,534.5,652.7,534.5,652.7,534.5c-13.2,0-26.3,0-39.5,0
			c-6.7,0-10.5,3.8-10.5,10.4c0,6,0.1,11.9,0,17.9c-0.1,2.8,0.8,3.9,3.8,3.9c26.9-0.1,53.7,0,80.6-0.1c5.9,0,9.3-3.5,9.3-9.3
			c0-6.4-0.2-12.7,0-19.1c0.1-2.9-0.7-3.8-3.8-3.7C679.3,534.6,666,534.5,652.7,534.5z"/>
		<path class="st47" d="M486.8,503.4c19.4,0,38.9,0.1,58.3-0.1c3.6,0,4.5,1,4.5,4.4c-0.2,19.6,0,39.2-0.3,58.8
			c-0.3,16.8-14.3,33-31.2,36.4c-3,0.6-6,0.9-9.1,0.9c-26.2-0.1-52.4-0.1-78.6,0c-7.1,0-6.5-0.8-6.5,6.2c0,9.1-0.1,18.2,0,27.3
			c0.1,2.9-0.7,4.2-4,4.2c-8.4-0.2-16.8-0.2-25.1-0.1c-2.6,0-3.5-0.8-3.5-3.3c0.1-31.8-0.2-63.6,0.2-95.4
			c0.2-17.8,12.3-32.5,29.7-38c2.8-0.9,5.7-1.2,8.6-1.2c9.6,0,19.2,0,28.7,0C467.9,503.4,477.3,503.4,486.8,503.4z M468.1,572.3
			C468.1,572.3,468.1,572.3,468.1,572.3c13.2-0.1,26.3,0,39.5-0.1c6.1,0,9.7-3.3,9.8-9.3c0.1-8.4-0.1-16.9,0.1-25.3
			c0-2.6-0.9-3.3-3.4-3.2c-26.8,0.1-53.7,0-80.5,0c-6.2,0-9.7,3.4-9.7,9.4c-0.1,8,0.2,16.1-0.1,24.1c-0.1,3.5,1.1,4.4,4.6,4.4
			C441.5,572.2,454.8,572.3,468.1,572.3z"/>
		<path class="st47" d="M932.7,546.6c-2.5-3.3-4.9-6.4-7.2-9.4c-4.1-5.3-8.1-10.6-12.3-15.8c-1.6-2-2.3-3.9-2.3-6.4
			c0.1-25.3,0-50.6,0-76c0-1.9,0.4-3.9-1.9-5.1c-6-3-6.8-2.6-6.8,3.9c0,21.8,0,43.6,0,65.4c0,1-0.1,2-0.2,4.1
			c-2.9-3-5.3-5.4-7.6-7.9c-3.6-3.9-7.1-8.1-10.9-11.9c-2.1-2.1-2.7-4.2-2.7-7c0.1-17.9,0.1-35.8,0.1-53.8c0-2.9-5.4-7-8-6
			c-1.7,0.6-1,2.3-1,3.4c0,15.2,0,30.4,0,45.6c0,1.4,0,2.8,0,4.2c-1.8,0.5-2.4-0.7-3.3-1.5c-6.9-6.5-13.8-13-20.8-19.3
			c-1.5-1.4-2-2.9-2-4.8c0-24.1,0-48.3,0-72.4c0-3.1,0.7-4,3.9-2.7c27,10.4,53.9,20.7,81,30.9c2.6,1,2.9,2.6,2.9,4.8
			c0,10.3,0,20.5,0,30.8c0,33.9,0,67.8,0,101.7C933.4,543,933.8,544.6,932.7,546.6z"/>
		<path class="st48" d="M526.9,727.7c-6.8,0-13.6-0.1-20.4,0c-2.8,0.1-3.7-1-3.6-3.7c0.3-10.5-1.1-8.5,8.5-8.6
			c10.6-0.2,21.3,0,31.9,0c4.4,0,6.7-3.4,5.1-7.4c-0.8-2-2.6-1.4-4.1-1.4c-12.1,0-24.2-0.2-36.3,0.1c-4.1,0.1-5.5-1.1-5.1-5.1
			c0.3-3.7,0-7.5,0.1-11.3c0.2-9.9,6.5-16.5,16.6-16.7c13-0.3,26.1,0,39.1,0c2.4,0,3.3,0.9,3.2,3.2c-0.2,10.9,1.3,8.7-8.5,8.8
			c-10.5,0.1-21,0-31.5,0c-5.1,0-6.6,1.2-7.1,4.9c-0.4,3.3,0.8,4.7,4.4,4.7c12.5-0.1,25-0.1,37.5-0.1c5.3,0,5.3,0,5.3,5
			c0,4,0,8.1,0,12.1c-0.1,8.9-6.9,15.5-15.9,15.5C539.7,727.8,533.3,727.8,526.9,727.7C526.9,727.8,526.9,727.8,526.9,727.7z"/>
		<path class="st48" d="M675.3,673.6c7,0,14.1,0.1,21.1,0c2.7,0,3.9,0.8,3.8,3.5c-0.1,6.5,0,13-0.1,19.5c-0.1,4.8-2.4,8.6-6.4,11.1
			c-3,1.9-2.9,3.8-1.4,6.5c1.9,3.4,3.5,7,5.4,10.4c1.4,2.5,0.5,2.9-2.1,3.3c-6,0.7-10.4-0.7-12.3-6.8c-2.6-8.5-8.3-12.2-17.6-10.5
			c-3.2,0.6-6.7,0.3-9.9,0c-4-0.4-5.2,1.3-4.9,4.9c0.2,3.1,0.1,6.2,0.1,9.3c0,1,0.1,2.4-1.2,2.6c-3.4,0.6-6.9,0.6-10.3,0.1
			c-1.4-0.2-1.4-1.8-1.4-2.9c0-11.8-0.3-23.6,0.1-35.4c0.3-9.3,7.3-15.4,17-15.5C662,673.6,668.6,673.6,675.3,673.6z M669,698.3
			C669,698.4,669,698.4,669,698.3c3.3,0.1,6.6,0,10,0.1c8.8,0.1,8.6,0.1,8.7-8.5c0-3.5-1.3-4.4-4.7-4.3c-7.7,0.2-15.4,0.1-23.1,0.1
			c-8.8,0-9.1,0.4-8.9,9c0.1,3,1.3,3.8,4.1,3.7C659.7,698.2,664.3,698.3,669,698.3z"/>
		<path class="st48" d="M969.1,673.6c6.9,0,13.8,0.1,20.8,0c2.8,0,4.1,0.9,4.1,3.8c-0.1,11.8,0.2,23.6-0.1,35.4
			c-0.2,8.4-7.2,14.7-15.8,14.8c-9.8,0.1-19.7,0.1-29.5,0.1c-8.2,0-15.4-6.6-15.7-14.6c-0.3-8.2-0.3-16.4,0-24.5
			c0.2-7.8,7.5-14.6,15.7-14.9c3.5-0.1,6.9-0.1,10.4-0.1C962.2,673.6,965.6,673.6,969.1,673.6z M964.2,685.6
			C964.2,685.7,964.2,685.7,964.2,685.6c-4.8,0.1-9.6,0.1-14.4,0.1c-3,0-4.6,1.1-4.5,4.4c0.2,6.9,0.2,13.8-0.1,20.6
			c-0.1,3.6,1.4,4.9,4.9,4.9c8.8-0.1,17.6,0,26.3,0c3.3,0,5-1.2,4.9-4.6c-0.1-7.4-0.1-14.8,0-22.2c0-2.7-1.3-3.3-3.7-3.3
			C973.2,685.7,968.7,685.6,964.2,685.6z"/>
		<path class="st49" d="M402,673.6c6.5,0,13,0.1,19.5,0c2.9-0.1,4,0.9,4,3.8c-0.1,11.4,0,22.8-0.1,34.2
			c-0.1,10.2-6.6,16.2-17.2,16.2c-8.6,0-17.3-0.4-25.9,0.1c-9.8,0.6-17.7-6.6-18-16.6c-0.2-7-0.2-14,0-21
			c0.4-10.1,7.2-16.5,17.7-16.7C388.7,673.5,395.3,673.6,402,673.6C402,673.6,402,673.6,402,673.6z M395,715.7
			C395,715.7,395,715.7,395,715.7c4.4,0,8.8-0.1,13.1,0c3.4,0.1,4.8-1.3,4.8-4.6c-0.1-7.3-0.1-14.5,0-21.8c0-2.7-1-3.7-3.7-3.7
			c-9,0.1-18.1,0.1-27.1,0.1c-3.8,0-5.3,1.8-5.3,5.2c0,6.6,0,13.2,0,19.8c0,3.6,1.8,5.1,5.5,5C386.5,715.6,390.8,715.7,395,715.7z"
			/>
		<path class="st47" d="M845.7,596.5c0-13.5,0-27,0-40.5c0-1.2-0.8-2.9,0.9-3.4c1.2-0.3,1.9,1.2,2.7,2.1
			c6.8,8.4,13.6,16.9,20.5,25.3c1.3,1.6,2,3.2,2,5.3c-0.1,17.5-0.1,35,0.1,52.6c0,2.9-1.1,3.5-3.7,3.5c-6.1-0.1-12.2-0.2-18.4,0
			c-3.2,0.1-4.1-1.1-4.1-4.1C845.8,623.7,845.8,610.1,845.7,596.5C845.8,596.5,845.7,596.5,845.7,596.5z"/>
		<path class="st49" d="M708.7,700.6c0-7.7,0.1-15.3,0-23c-0.1-3,1-4.2,4.1-4.1c10,0.1,8.6-0.7,8.6,8.2c0,9.7,0.2,19.5-0.1,29.2
			c-0.1,3.8,1.3,4.9,5.1,4.8c8.6-0.2,17.3-0.1,25.9-0.1c5,0,5.5-0.6,5.6-5.3c0-10.8,0.1-21.5,0-32.3c-0.1-3.5,1.3-4.5,4.6-4.5
			c8.3,0,8.2-0.1,8.2,8c-0.1,9.5,0,18.9,0,28.4c0,11.6-6.3,17.8-18.2,17.8c-13.2,0-26.3-0.1-39.5,0.1c-3.3,0-4.4-1.1-4.3-4.2
			C708.8,716,708.7,708.3,708.7,700.6C708.7,700.6,708.7,700.6,708.7,700.6z"/>
		<path class="st48" d="M1063.4,700.6c0,7.7-0.1,15.3,0,23c0.1,3.1-0.9,4.4-4.3,4.3c-10.3-0.2-8.7,0.9-8.8-8.4
			c-0.1-9.7-0.1-19.5,0.1-29.2c0.1-3.3-0.9-4.7-4.5-4.6c-8.4,0.2-16.8,0-25.1,0c-5,0-6,1-6.1,6c-0.1,10.8-0.1,21.5,0,32.3
			c0,2.9-0.9,3.9-3.9,3.8c-10.2-0.2-8.6,1.1-8.7-8.4c0-9.5-0.1-18.9,0-28.4c0-10.7,6.4-17.2,17.2-17.3c13.2-0.1,26.3,0.1,39.5-0.1
			c3.7,0,4.8,1.3,4.7,4.8C1063.2,685.8,1063.4,693.2,1063.4,700.6z"/>
		<path class="st48" d="M494.8,701.1c0,7.5-0.1,15.1,0.1,22.6c0.1,2.9-0.6,4.3-4,4.2c-10.1-0.3-8.5,0.9-8.6-8.2
			c-0.1-10.1-0.1-20.3,0-30.4c0-2.7-0.8-3.7-3.6-3.6c-8.8,0.1-17.6,0-26.3,0.1c-4.9,0-5.4,0.6-5.4,5.5c0,10.9-0.1,21.8,0,32.7
			c0,2.8-0.8,3.9-3.8,3.9c-10.5-0.2-9.1,1.5-9.2-8.8c-0.1-9.6-0.2-19.2,0.1-28.8c0.2-10.4,6.8-16.6,17.4-16.6
			c12.9-0.1,25.8,0,38.7-0.1c3.5,0,5,0.9,4.9,4.6C494.7,685.8,494.9,693.5,494.8,701.1C494.9,701.1,494.9,701.1,494.8,701.1z"/>
		<path class="st49" d="M327.9,673.6c8,0,16,0.1,23.9,0c3.1,0,4.3,0.9,4.1,4.1c-0.4,9.7,1.3,7.9-8.2,8.1c-10.4,0.2-20.8,0.1-31.1,0
			c-3.4-0.1-4.8,0.8-4.7,4.3c0.2,6.4,0,12.7,0.1,19.1c0.1,6.2,0.6,6.6,6.9,6.7c10.9,0,21.8,0.1,32.7-0.1c3.4-0.1,4.5,1.2,4.4,4.3
			c-0.2,9.1,0.8,7.7-7.8,7.8c-10.2,0.1-20.5-0.4-30.7,0.2c-9.6,0.6-17.8-6.3-17.9-16.7c-0.2-11.4,0-22.9-0.1-34.3
			c0-2.9,1.6-3.4,4.1-3.4C311.7,673.6,319.8,673.6,327.9,673.6C327.9,673.6,327.9,673.6,327.9,673.6z"/>
		<path class="st47" d="M836,576.2c-0.2,7.7,1.5,5.6-6.6,8.7c-25.3,9.7-50.8,19.3-76.1,28.9c-4.8,1.8-5.1,1.7-5-3.3
			c0-9.5,0-9.6,9-13.1c24.7-9.5,49.5-18.9,74.2-28.3c4-1.5,4.4-1.2,4.5,3.1C836,573.3,836,574.5,836,576.2z"/>
		<path class="st48" d="M835.9,551.2c0,8.3,0.9,6.4-6.6,9.3c-25.5,9.8-51,19.5-76.5,29.3c-4,1.5-4.7,1.2-4.6-3.1
			c0.3-12-1.8-9.3,9.6-13.6c24-9.2,48.1-18.3,72.1-27.4c6.1-2.3,6.1-2.4,6,4.1C835.9,550.1,835.9,550.6,835.9,551.2z"/>
		<path class="st48" d="M836,599.6c0,7,0,7.1-6.4,9.5c-25.4,9.7-50.8,19.3-76.2,28.9c-4.9,1.8-5.1,1.7-5-3.5
			c0.3-11.4-1.9-8.5,9.4-12.8c24.2-9.2,48.3-18.4,72.5-27.6c5.7-2.2,5.8-2.1,5.8,4C836,598.5,836,599,836,599.6z"/>
		<path class="st49" d="M600.2,673.6c8.5,0,17,0.1,25.5,0c3.1,0,4.3,1,4.2,4.1c-0.3,9.2,0.7,7.9-8.1,8c-3.7,0.1-7.5,0.2-11.2-0.1
			c-3.3-0.3-4,1.2-4,4.1c0.1,11.3,0,22.6,0.1,33.9c0.1,3.2-0.9,4.3-4.2,4.3c-8.4,0-8.4,0.2-8.4-7.9c0-10.1-0.1-20.3,0.1-30.4
			c0-3.1-1-4.1-4.1-4c-5.3,0.2-10.6-0.1-16,0.1c-2.8,0.1-4.1-0.7-4-3.7c0.2-9.9-0.6-8.3,8.5-8.4C585.8,673.5,593,673.6,600.2,673.6z
			"/>
		<path class="st47" d="M748.2,559.5c0-0.3,0-0.5,0-0.8c0.2-7.2-1.4-6,6.5-9c21.2-8,42.3-16.1,63.4-24.2c2.3-0.9,3.9-0.8,5.6,1.1
			c1.7,2.1,3.7,4.1,5.8,5.9c2.2,2,1.7,3-0.9,4c-10.3,3.8-20.5,7.8-30.8,11.7c-14.6,5.5-29.2,11-43.8,16.5c-5.6,2.1-5.6,2.2-5.6-3.8
			C748.2,560.5,748.2,560,748.2,559.5z"/>
		<path class="st48" d="M748.3,535c0-7.1,0-7.1,6-9.4c15.1-5.7,30.2-11.3,45.3-17.1c3.1-1.2,5.2-0.9,7.3,1.6
			c1.6,1.9,3.5,3.5,5.3,5.2c2.1,1.9,1.3,2.8-1,3.7c-19.1,7.1-38.1,14.3-57.2,21.6c-5.8,2.2-5.8,2.2-5.7-3.9
			C748.3,536.1,748.3,535.6,748.3,535z"/>
		<path class="st47" d="M836,380.6c0.1,7.3,0.1,7.3-6.7,10c-12.6,4.8-25.2,9.6-37.9,14.4c-1.1,0.4-2.3,1.2-3.4,0.5
			c-4.2-2.8-8.5-5.4-12.3-8.6c-2.2-1.9,0.8-2.1,1.7-2.5c10.9-4.2,21.8-8.3,32.7-12.5c7.2-2.7,14.4-5.5,21.5-8.2
			c4.2-1.6,4.4-1.5,4.4,3C836,378,836,379.3,836,380.6z"/>
		<path class="st47" d="M771.1,640.8c10.1-3.9,19.3-7.5,28.6-11c10.6-4,21.3-8,32-12c4.1-1.5,4.4-1.4,4.4,2.7c0,6-0.1,11.9,0,17.9
			c0,2.1-0.7,3.1-3,3c-20.1-0.1-40.2,0-60.2-0.1C772.5,641.3,772.3,641.2,771.1,640.8z"/>
		<path class="st50" d="M779.4,706c0-9.3,0-18.7,0-28c16.7,0,33.4,0,50.1,0l0,0c-0.2,2,2,2.8,2.4,4.7c-9.3,0-18.3,0.1-27.3,0
			c-4.5-0.1-9,0.8-13.4-1.1c-1.1-0.4-2.4-0.1-2.7,1c-0.7,3.4-2.3,6.7-0.5,10.2c2.3,4.7,2.5,9.4-0.1,14c-1.7,3.1-1.2,5.4,1.6,7.8
			c2.8,2.5,5.7,2.3,9.2,2.5c9,0.5,18,0.5,27.1,0.6c2,0,4.4-0.2,4.3,2.7c-0.1,2.7-2.4,2.7-4.5,2.7c-6.1,0-12.2-0.1-18.3,0.1
			c-5.9,0.2-11.9-0.9-17.8,1.1c-2.3,0.8-6.1-2.8-5.4-5.1c0.7-2.4-0.4-3.6-1.9-5c-1.8-1.5-2.7-3.1-1-5.4
			C782.8,706.7,781.2,706.2,779.4,706z"/>
		<path class="st51" d="M779.4,706c1.8,0.2,3.4,0.7,1.8,2.9c-1.7,2.2-0.7,3.9,1,5.4c1.6,1.3,2.7,2.6,1.9,5c-0.7,2.3,3,5.9,5.4,5.1
			c5.9-2,11.9-0.9,17.8-1.1c6.1-0.2,12.2,0,18.3-0.1c2,0,4.3,0,4.5-2.7c0.1-2.9-2.3-2.7-4.3-2.7c-9-0.1-18-0.1-27.1-0.6
			c-3.5-0.2-6.4,0.1-9.2-2.5c-2.8-2.5-3.3-4.8-1.6-7.8c2.6-4.6,2.4-9.3,0.1-14c-1.7-3.5-0.2-6.9,0.5-10.2c0.2-1.1,1.6-1.5,2.7-1
			c4.3,1.9,8.9,1.1,13.4,1.1c9,0.1,18,0,27.3,0c-0.4-1.9-2.6-2.8-2.4-4.7c0.9-0.2,1.9-0.4,1.9-1.6c-0.1-1.2-1.1-1.3-2-1.4
			c-0.9-0.1-1.8-0.1-2.8-0.1c-15.7,0-31.5,0-47.2,0c0.6-2,2.4-1.3,3.7-1.3c16.1-0.1,32.1,0,48.2-0.1c3.3,0,4.7,1.2,4.3,4.3
			c-0.1,1.2,0,2.3,0,3.5c-0.1,4.6-0.6,4.9-5.5,3.9c-1.8-1-3.8-1-5.8-1c-8.7,0-17.4,0-26.1,0c-2,0-4,0.1-5.8,0.9
			c-1,9.2-0.3,18.4-0.4,27.6c0,3,2.2,2.8,4.2,2.8c11.6,0.1,23.1,0.3,34.7,0.1c4.1-0.1,5,1.4,4.8,5c-0.3,7.5,1.4,7.2-7.6,7.2
			c-10.6,0-21.3,0-31.9,0c-10.3,0-16.9-6.3-17-16.4C779.1,709.6,779.3,707.8,779.4,706z"/>
		<path class="st48" d="M911.9,701c0-7.9,0.1-15.8,0-23.7c0-2.7,1-3.6,3.7-3.7c8.8-0.3,8.9-0.3,8.9,8.1c0,13.9-0.1,27.8,0.1,41.7
			c0,3.4-1.1,4.5-4.5,4.5c-8.1,0.1-8.1,0.2-8.1-7.8C911.9,713.7,911.9,707.3,911.9,701C911.9,701,911.9,701,911.9,701z"/>
		<path class="st47" d="M748.2,510.8c0.1-8.4-1.1-6.6,7-9.8c8.2-3.2,16.6-6.2,24.8-9.5c3.2-1.3,5.6-1.5,8.1,1.4
			c1.7,2,3.9,3.5,5.9,5.2c1.6,1.4,1.8,2.4-0.5,3.3c-14.1,5.3-28.2,10.6-42.3,16c-2.2,0.8-3,0.2-2.9-1.9
			C748.2,513.9,748.2,512.3,748.2,510.8z"/>
		<path class="st47" d="M880.7,597.1c5.6,5.4,9.1,12,13.1,18.2c1.9,2.9,3.3,6.3,5.4,9.1c3.3,4.5,3,9.5,2.9,14.5
			c0,1.8-0.7,2.5-2.6,2.5c-5.3-0.1-10.6,0-15.9,0c-2,0-2.9-0.7-2.9-2.8C880.8,624.8,880.7,610.9,880.7,597.1z"/>
		<path class="st49" d="M835.9,405.2c0,1.4-0.1,2.9,0,4.3c0.1,2.1-0.9,3.2-3,3.9c-6.4,2.3-12.7,4.8-18.9,7.2c-2.4,1-4.5,1-6.6-0.8
			c-2.5-2.1-5.3-3.9-7.9-5.8c-1.6-1.1-1.7-2,0.2-2.7c11.1-4.2,22.3-8.5,33.5-12.7c1.9-0.7,2.8,0,2.8,1.9
			C836,402.1,836,403.7,835.9,405.2C836,405.2,835.9,405.2,835.9,405.2z"/>
		<path class="st49" d="M763.3,473.7c1.7-0.1,2.4,0.1,3.1,0.6c2.8,2.4,5.6,4.8,8.4,7.1c1.6,1.3,1,2.2-0.5,2.8c-7.8,3-15.6,6-23.4,9
			c-1.6,0.6-2.6,0.1-2.6-1.7c0-3.4,0.1-6.7,0.1-10.1c0-0.8,0.2-1.6,1-2C754,476.8,759.2,475.4,763.3,473.7z"/>
		<path class="st47" d="M836,429.7c0,1.4,0.1,2.9,0,4.3c-0.2,3.5-3.9,5.4-6.7,3.4c-3.1-2.2-5.9-4.8-8.9-7.2
			c-1.5-1.2-1.2-2.1,0.5-2.7c3.8-1.4,7.7-2.8,11.5-4.4c2.7-1.1,3.8-0.4,3.6,2.4C835.9,426.8,836,428.2,836,429.7z"/>
		<path class="st50" d="M779.4,674.9c15.7,0,31.5,0,47.2,0c0.9,0,1.9,0,2.8,0.1c0.9,0.1,2,0.3,2,1.4c0.1,1.2-1,1.4-1.9,1.6
			c0,0,0,0,0,0c-1.4-2-3.5-1.5-5.5-1.5c-14.9-0.1-29.8-0.1-44.7-0.1C779.4,675.9,779.4,675.4,779.4,674.9z"/>
		<path class="st51" d="M779.4,676.4c14.9,0,29.8,0,44.7,0.1c1.9,0,4.1-0.5,5.5,1.5c-16.7,0-33.4,0-50.1,0
			C779.4,677.5,779.4,676.9,779.4,676.4z"/>
		<path class="st50" d="M792.4,685.1c1.8-0.8,3.8-0.9,5.8-0.9c8.7,0,17.4,0,26.1,0c2,0,4,0.1,5.8,1c-8.1,1-16.2,0.3-24.2,0.4
			C801.3,685.6,796.8,686.3,792.4,685.1z"/>
		<path class="st47" d="M748,465.3c0.5-1.4-0.7-3.3,1.3-4.1c0.9-0.4,6.9,4.7,6.4,5.3c-1.5,1.7-3.7,2.5-5.9,2.6
			C746.8,469.2,748.8,466.5,748,465.3z"/>
		<polygon class="st52" points="841.7,673.5 901.8,673.5 901.8,685.5 878.4,685.5 878.4,728.1 866,728.1 866,685.5 841.7,685.5 		
			"/>
	</g>
	<g>
		<text transform="matrix(1 0 0 1 362.7154 799.5188)" class="st53 st54 st55">Consulting &amp; Contractor</text>
	</g>
</g>
</svg>
