<svg xmlns="http://www.w3.org/2000/svg" viewBox="0 0 878.44 1004.94"><g id="Layer_2" data-name="Layer 2"><g id="Layer_1-2" data-name="Layer 1"><path d="M507.16,1000.28c-2.11-29.33-3.81-58.71-6.42-88-4.8-53.7-10.1-107.36-21-160.27-1.33-6.52-3.1-13-4.63-19.44-.41-1.75-1.09-3.48.07-5.3,8.76-13.76,14-29,18.7-44.49.08-.24.36-.42.81-.93,18.75,19.5,33.91,41.59,48.72,65.61,13.13-65,25.73-128.84,33.82-193.93,19.12,22.83,44.6,35.2,70.39,47,29.35,13.44,59.79,24,90.39,34.22,24.08,8,45.53,20.78,62.8,39.57,10.44,11.35,17.38,25.26,24.77,38.7a464.42,464.42,0,0,1,50.62,144c.75,4.23.74,8.6,2.2,12.71v15.06c-1,8.74-1.1,17.57-4.62,25.92-4.06,9.62-9.87,17-19.91,21.3-41.52,17.78-84.7,30.21-128.59,40.37-44.19,10.22-88.86,17.85-133.79,23.87-21.52,2.89-43,5.81-64.71,7.55-4.16.34-8.29.94-12.47.9C511,1004.86,506.83,1006.21,507.16,1000.28Z" fill="#010101"/><path d="M474.83,0c10.39,2.49,19.73,6.76,26.9,15.12,2.73,3.18,3.5,6.2,2.73,10.44-6.61,36.27-13,72.58-19.33,108.88-1.4,8,5,16.64,13.09,18.1A16.06,16.06,0,0,0,517,139.89c3.82-20.66,7.39-41.36,11-62.06,2.06-11.66,4.17-23.31,6-35,.74-4.64,2.93-1.69,4.34-.94,37.52,20.12,66.6,48.85,87,86.23a202.48,202.48,0,0,1,25.2,95.75c.05,4.33,1.48,5.11,5.45,5.06,16.46-.19,28,7.24,32.6,20.53,7,20.32-7.46,40.75-29.52,41.59-1,0-2,0-3,0H222.41c-16,0-27.48-7.31-32.37-20.46a31,31,0,0,1,28.39-41.77c9.24-.19,8.92-.21,9.46-9.47,3.75-65.26,31.49-118.06,82.72-158.55a201.24,201.24,0,0,1,29.38-19c2.63-1.42,3.81-2.21,4.52,2,5.41,31.73,11.1,63.42,16.8,95.1,1.71,9.5,9.92,15.3,18.87,13.65s14.37-10.29,12.63-20.05q-9.69-54.42-19.26-108.88a7.62,7.62,0,0,1,1.58-6.51A43.22,43.22,0,0,1,400.32,1c1.1-.25,2.38,0,3.22-1Z" fill="#010101"/><path d="M878.44,1004.28q-177.37,0-354.75,0c-3.13,0-6.35.6-9.37-.83,17.85-.93,35.56-3.37,53.29-5.51,24.84-3,49.63-6.5,74.31-10.69,70.18-12,139.39-27.31,205.83-53.88,18-7.2,25.5-20,28.77-37.33.71-3.74.36-7.65,1.92-11.24Z" fill="#fff"/><path d="M371.22,1001.29c-1,2-1.84,3.73-4.7,2.28-1.17-.6-2.87-.16-4.33-.2-17.53-.88-34.9-3.32-52.29-5.42-24.84-3-49.62-6.5-74.29-10.74-72.47-12.45-144.13-27.84-212.09-57.12-8.13-3.5-13.27-9.47-16.46-17.2a89.49,89.49,0,0,1-5.91-49c9.68-60.6,31.05-116.79,62.36-169.56,18-30.37,45-48.32,77.07-59.39C181,621,221.37,607.06,259.11,586.62c15.63-8.46,30.1-18.46,42.07-33.11,8,65.21,20.68,129,33.72,194,14.92-23.73,29.94-46,49-65.67,2.95,8.28,5.63,16.24,8.64,24.07,1.85,4.8,3.49,9.94,6.49,14,4.9,6.62,4.44,13,2.55,20.46-7.42,29.15-11.32,58.92-15.14,88.7-4,31.33-7,62.76-9.65,94.22C374.59,949.24,373,975.28,371.22,1001.29Z" fill="#010101"/><path d="M439.26,332.53q93.87,0,187.74-.1c4.56,0,5.73.86,4.69,5.52-4.83,21.46-10.19,42.75-19.57,62.77a43.73,43.73,0,0,1-9,13.18,10.55,10.55,0,0,0-2.6,4.21,256.63,256.63,0,0,1-44.83,78.14,17.09,17.09,0,0,0-4.05,15.08A20.32,20.32,0,0,1,550.27,523c-17.33,42.21-42.88,78.11-83.11,100.93-30.72,17.43-25.83,17.35-56.08,0-41.2-23.6-67.27-60.53-84.14-104.33-1.79-4.64.51-9.23.22-13.88a10.58,10.58,0,0,0-2.42-6.75A263.65,263.65,0,0,1,278,418.53a9.29,9.29,0,0,0-1.51-3.13c-12.86-13.69-17.57-31.18-22.33-48.53-2.67-9.77-6.37-19.27-7.57-29.49-.52-4.38.54-4.93,4.44-4.92Q345.15,332.61,439.26,332.53Z" fill="#010101"/></g></g></svg>